<svg height="512pt" viewBox="-52 0 511 512" width="512pt" xmlns="http://www.w3.org/2000/svg"><path d="m90.851562 448v56.46875h225.882813v-54.585938" fill="#ff9c43"/><path d="m90.851562 451.765625h224v22.585937h-224zm0 0" fill="#fe7829"/><path d="m308.890625 7.53125h-210.195313c-4.332031 0-7.84375 3.511719-7.84375 7.84375v103.214844h225.882813v-103.214844c0-4.332031-3.511719-7.84375-7.84375-7.84375zm-33.566406 52.703125h-143.058594c-6.238281 0-11.296875-5.054687-11.296875-11.292969 0-6.238281 5.058594-11.292968 11.296875-11.292968h143.058594c6.238281 0 11.292969 5.054687 11.292969 11.292968 0 6.238282-5.054688 11.292969-11.292969 11.292969zm0 0" fill="#ff9c43"/><path d="m88.96875 97.882812h227.765625v24.46875h-227.765625zm0 0" fill="#fe7829"/><path d="m132.265625 60.234375c-6.238281 0-11.296875-5.054687-11.296875-11.292969 0-6.238281 5.058594-11.292968 11.296875-11.292968h11.292969v-22.273438c0-4.332031 3.511718-7.84375 7.84375-7.84375h-52.707032c-4.332031 0-7.84375 3.511719-7.84375 7.84375v103.214844h52.707032v-58.355469zm0 0" fill="#fe7829"/><path d="m334.527344 448h-261.46875c-31.757813 0-57.5-25.742188-57.5-57.5v-213.558594c0-31.757812 25.746094-57.5 57.5-57.5h261.46875c31.757812 0 57.5 25.742188 57.5 57.5v213.558594c.003906 31.757812-25.742188 57.5-57.5 57.5zm0 0" fill="#ff9c43"/><g fill="#fe7829"><path d="m134.148438 368.941406h257.882812v18.824219h-257.882812zm0 0"/><path d="m87.089844 195.765625h304.941406v18.824219h-304.941406zm0 0"/><path d="m111.558594 390.5v-213.558594c0-31.757812 25.746094-57.5 57.5-57.5h-96c-31.757813 0-57.5 25.742188-57.5 57.5v213.558594c0 31.757812 25.746094 57.5 57.5 57.5h96c-31.753906 0-57.5-25.746094-57.5-57.5zm0 0"/></g><path d="m15.558594 224h118.589844v175.058594h-118.589844zm0 0" fill="#fff"/><path d="m15.558594 224h90.351562v175.058594h-90.351562zm0 0" fill="#e5ecec"/><path d="m120.96875 466.824219h15.0625v15.058593h-15.0625zm0 0" fill="#fff"/><path d="m151.089844 466.824219h15.058594v15.058593h-15.058594zm0 0"/><path d="m181.207031 466.824219h15.058594v15.058593h-15.058594zm0 0" fill="#fff"/><path d="m211.324219 466.824219h15.058593v15.058593h-15.058593zm0 0"/><path d="m241.441406 466.824219h15.058594v15.058593h-15.058594zm0 0" fill="#fff"/><path d="m271.558594 466.824219h15.058594v15.058593h-15.058594zm0 0"/><path d="m275.324219 67.765625h-143.058594c-10.378906 0-18.824219-8.445313-18.824219-18.824219s8.445313-18.824218 18.824219-18.824218h143.058594c10.378906 0 18.824219 8.445312 18.824219 18.824218s-8.445313 18.824219-18.824219 18.824219zm-143.058594-22.589844c-2.074219 0-3.765625 1.6875-3.765625 3.765625 0 2.074219 1.691406 3.765625 3.765625 3.765625h143.058594c2.074219 0 3.765625-1.691406 3.765625-3.765625 0-2.078125-1.691406-3.765625-3.765625-3.765625zm0 0"/><path d="m376.96875 37.648438h-15.058594v-37.648438h45.179688v15.058594h-30.121094zm0 0" fill="#b8bfc5"/><path d="m45.675781 37.648438h-15.058593v-22.589844h-30.117188v-15.058594h45.175781zm0 0" fill="#b8bfc5"/><path d="m166.148438 361.410156h15.058593v15.058594h-15.058593zm0 0"/><path d="m196.265625 361.410156h15.058594v15.058594h-15.058594zm0 0"/><path d="m226.382812 361.410156h15.058594v15.058594h-15.058594zm0 0"/><path d="m256.5 361.410156h15.058594v15.058594h-15.058594zm0 0"/><path d="m286.617188 361.410156h15.058593v15.058594h-15.058593zm0 0"/><path d="m316.734375 361.410156h15.058594v15.058594h-15.058594zm0 0"/><path d="m346.851562 361.410156h15.058594v15.058594h-15.058594zm0 0"/><path d="m113.441406 82.824219h15.058594v15.058593h-15.058594zm0 0" fill="#fff"/><path d="m279.089844 82.824219h15.058594v15.058593h-15.058594zm0 0" fill="#fff"/><path d="m45.675781 188.234375h15.058594v15.058594h-15.058594zm0 0"/><path d="m75.792969 188.234375h15.058593v15.058594h-15.058593zm0 0"/><path d="m105.910156 188.234375h15.058594v15.058594h-15.058594zm0 0"/><path d="m136.03125 188.234375h15.058594v15.058594h-15.058594zm0 0"/><path d="m166.148438 188.234375h15.058593v15.058594h-15.058593zm0 0"/><path d="m196.265625 188.234375h15.058594v15.058594h-15.058594zm0 0"/><path d="m226.382812 188.234375h15.058594v15.058594h-15.058594zm0 0"/><path d="m256.5 188.234375h15.058594v15.058594h-15.058594zm0 0"/><path d="m286.617188 188.234375h15.058593v15.058594h-15.058593zm0 0"/><path d="m316.734375 188.234375h15.058594v15.058594h-15.058594zm0 0"/><path d="m346.851562 188.234375h15.058594v15.058594h-15.058594zm0 0"/><path d="m38.148438 361.410156h15.058593v15.058594h-15.058593zm0 0" fill="#ff6969"/><path d="m68.265625 361.410156h15.058594v15.058594h-15.058594zm0 0" fill="#ff6969"/><path d="m98.382812 361.410156h15.058594v15.058594h-15.058594zm0 0" fill="#ff6969"/><path d="m354.382812 115.019531v-21.546875l22.585938-22.589844v-18.175781h-15.058594v11.941407l-22.585937 22.585937v24.871094c-1.585938-.113281-3.179688-.195313-4.796875-.195313h-10.261719v-96.535156c0-8.476562-6.898437-15.375-15.375-15.375h-210.195313c-8.476562 0-15.371093 6.898438-15.371093 15.375v96.535156h-10.265625c-1.613282 0-3.207032.078125-4.792969.195313v-24.871094l-22.589844-22.585937v-11.941407h-15.058593v18.175781l22.589843 22.589844v21.546875c-26.175781 8.414063-45.175781 32.988281-45.175781 61.921875v213.558594c0 35.859375 29.171875 65.03125 65.027344 65.03125h10.265625v56.46875h240.941406v-56.46875h10.261719c35.859375 0 65.03125-29.175781 65.03125-65.03125v-213.558594c0-28.933594-19-53.507812-45.175782-61.921875zm-256-99.644531c0-.175781.140626-.316406.3125-.316406h210.195313c.171875 0 .3125.140625.3125.316406v96.535156h-210.820313zm-75.292968 375.125v-66.734375h52.703125v-15.058594h-52.703125v-15.058593h67.761718v-15.058594h-67.761718v-15.058594h82.820312v-15.0625h-82.820312v-15.058594h105.410156v158.121094h-105.386719c-.007812-.347656-.023437-.6875-.023437-1.03125zm286.117187 106.441406h-210.824219v-41.410156h210.824219zm75.292969-308.707031h-7.53125v15.058594h7.53125v158.117187h-7.53125v15.058594h7.53125v14.03125c0 27.554688-22.417969 49.96875-49.972656 49.96875h-261.46875c-21.925782 0-40.582032-14.199219-47.296875-33.878906h117.796875v-30.121094h7.53125v-15.058594h-7.53125v-143.058594h-120.46875v-15.058593h7.527344v-15.058594h-7.527344v-11.292969c0-27.554687 22.414062-49.972656 49.96875-49.972656h261.46875c27.554687 0 49.972656 22.417969 49.972656 49.972656zm0 0"/><path d="m90.851562 308.707031h15.058594v15.058594h-15.058594zm0 0"/></svg>